<svg width="24" height="24" viewBox="0 0 24 24" fill="none" xmlns="http://www.w3.org/2000/svg">
<path d="M16.47 13.47C16.3295 13.6107 16.2506 13.8013 16.2506 14C16.2506 14.1988 16.3295 14.3894 16.47 14.53L17.19 15.25H6.99999C6.80108 15.25 6.61031 15.329 6.46966 15.4697C6.32901 15.6104 6.24999 15.8011 6.24999 16C6.24999 16.1989 6.32901 16.3897 6.46966 16.5304C6.61031 16.671 6.80108 16.75 6.99999 16.75H17.19L16.47 17.47C16.3963 17.5387 16.3372 17.6215 16.2962 17.7135C16.2552 17.8055 16.2332 17.9048 16.2314 18.0055C16.2296 18.1062 16.2481 18.2062 16.2859 18.2996C16.3236 18.393 16.3797 18.4778 16.451 18.5491C16.5222 18.6203 16.607 18.6764 16.7004 18.7142C16.7938 18.7519 16.8938 18.7704 16.9945 18.7686C17.0952 18.7668 17.1945 18.7448 17.2865 18.7038C17.3785 18.6628 17.4613 18.6037 17.53 18.53L19.53 16.53C19.6704 16.3894 19.7493 16.1988 19.7493 16C19.7493 15.8013 19.6704 15.6107 19.53 15.47L17.53 13.47C17.3894 13.3296 17.1987 13.2507 17 13.2507C16.8012 13.2507 16.6106 13.3296 16.47 13.47ZM6.80999 8.75003L7.52999 9.47003C7.60368 9.53869 7.66278 9.62149 7.70377 9.71349C7.74476 9.80549 7.7668 9.90481 7.76858 10.0055C7.77036 10.1062 7.75183 10.2062 7.71411 10.2996C7.67639 10.393 7.62024 10.4779 7.54903 10.5491C7.47781 10.6203 7.39297 10.6764 7.29959 10.7142C7.2062 10.7519 7.10617 10.7704 7.00547 10.7686C6.90476 10.7668 6.80545 10.7448 6.71345 10.7038C6.62145 10.6628 6.53865 10.6037 6.46999 10.53L4.46999 8.53003C4.32954 8.38941 4.25065 8.19878 4.25065 8.00003C4.25065 7.80128 4.32954 7.61066 4.46999 7.47003L6.46999 5.47003C6.53865 5.39634 6.62145 5.33724 6.71345 5.29625C6.80545 5.25526 6.90476 5.23322 7.00547 5.23144C7.10617 5.22966 7.2062 5.24819 7.29959 5.28591C7.39297 5.32363 7.47781 5.37977 7.54903 5.45099C7.62024 5.52221 7.67639 5.60705 7.71411 5.70043C7.75183 5.79382 7.77036 5.89385 7.76858 5.99455C7.7668 6.09526 7.74476 6.19457 7.70377 6.28657C7.66278 6.37857 7.60368 6.46137 7.52999 6.53003L6.80999 7.25003H17C17.1989 7.25003 17.3897 7.32905 17.5303 7.4697C17.671 7.61035 17.75 7.80112 17.75 8.00003C17.75 8.19894 17.671 8.38971 17.5303 8.53036C17.3897 8.67101 17.1989 8.75003 17 8.75003H6.80999Z" fill="black"/>
</svg>
