<svg width="24" height="24" viewBox="0 0 24 24" fill="none" xmlns="http://www.w3.org/2000/svg">
<g clip-path="url(#clip0_1258_1146)">
<path fill-rule="evenodd" clip-rule="evenodd" d="M8.163 5.25H18.75C19.3467 5.25 19.919 5.48705 20.341 5.90901C20.7629 6.33097 21 6.90326 21 7.5V16.5C21 17.0967 20.7629 17.669 20.341 18.091C19.919 18.5129 19.3467 18.75 18.75 18.75H8.163C7.82564 18.7499 7.49261 18.674 7.18857 18.5278C6.88452 18.3816 6.61724 18.1689 6.4065 17.9055L2.694 13.266C2.40625 12.9068 2.24946 12.4603 2.24946 12C2.24946 11.5397 2.40625 11.0932 2.694 10.734L6.4065 6.0945C6.61692 5.83145 6.88372 5.61901 7.18721 5.47285C7.49071 5.32668 7.82314 5.25053 8.16 5.25M4.6455 4.689C5.06745 4.16152 5.60274 3.7358 6.21166 3.44342C6.82058 3.15103 7.48752 2.99948 8.163 3H18.75C19.9435 3 21.0881 3.47411 21.932 4.31802C22.7759 5.16193 23.25 6.30653 23.25 7.5V16.5C23.25 17.6935 22.7759 18.8381 21.932 19.682C21.0881 20.5259 19.9435 21 18.75 21H8.163C7.48802 21.0001 6.82168 20.8483 6.21331 20.5559C5.60494 20.2636 5.07013 19.8381 4.6485 19.311L0.937498 14.6715C0.330622 13.9133 -3.05176e-05 12.9711 -3.05176e-05 12C-3.05176e-05 11.0289 0.330622 10.0867 0.937498 9.3285L4.6455 4.689ZM10.92 8.205C10.7067 8.00628 10.4247 7.8981 10.1332 7.90324C9.84176 7.90838 9.56369 8.02645 9.35757 8.23257C9.15145 8.43869 9.03338 8.71677 9.02824 9.00822C9.02309 9.29967 9.13128 9.58174 9.33 9.795L11.535 12L9.33 14.205C9.21947 14.308 9.13082 14.4322 9.06933 14.5702C9.00784 14.7082 8.97478 14.8572 8.97211 15.0082C8.96945 15.1593 8.99723 15.3093 9.05381 15.4494C9.1104 15.5895 9.19461 15.7167 9.30144 15.8236C9.40827 15.9304 9.53552 16.0146 9.6756 16.0712C9.81568 16.1278 9.96573 16.1556 10.1168 16.1529C10.2678 16.1502 10.4168 16.1172 10.5548 16.0557C10.6928 15.9942 10.817 15.9055 10.92 15.795L13.125 13.59L15.33 15.795C15.433 15.9055 15.5572 15.9942 15.6952 16.0557C15.8332 16.1172 15.9822 16.1502 16.1332 16.1529C16.2843 16.1556 16.4343 16.1278 16.5744 16.0712C16.7145 16.0146 16.8417 15.9304 16.9486 15.8236C17.0554 15.7167 17.1396 15.5895 17.1962 15.4494C17.2528 15.3093 17.2806 15.1593 17.2779 15.0082C17.2752 14.8572 17.2422 14.7082 17.1807 14.5702C17.1192 14.4322 17.0305 14.308 16.92 14.205L14.715 12L16.92 9.795C17.1187 9.58174 17.2269 9.29967 17.2218 9.00822C17.2166 8.71677 17.0985 8.43869 16.8924 8.23257C16.6863 8.02645 16.4082 7.90838 16.1168 7.90324C15.8253 7.8981 15.5433 8.00628 15.33 8.205L13.125 10.41L10.92 8.205Z" fill="black"/>
</g>
<defs>
<clipPath id="clip0_1258_1146">
<rect width="24" height="24" fill="white"/>
</clipPath>
</defs>
</svg>
