<svg width="24" height="24" viewBox="0 0 24 24" fill="none" xmlns="http://www.w3.org/2000/svg">
<path d="M20 3H4C3.73478 3 3.48043 3.10536 3.29289 3.29289C3.10536 3.48043 3 3.73478 3 4V5.586C3.00006 5.85119 3.10545 6.10551 3.293 6.293L9.707 12.707C9.89455 12.8945 9.99994 13.1488 10 13.414V19.219C10 19.4419 10.0745 19.6585 10.2117 19.8342C10.3488 20.01 10.5408 20.1348 10.757 20.189L12.757 20.689C12.9044 20.7259 13.0584 20.7288 13.2071 20.6973C13.3558 20.6658 13.4954 20.6008 13.6152 20.5073C13.735 20.4138 13.832 20.2942 13.8987 20.1576C13.9653 20.021 14 19.871 14 19.719V13.414C14.0001 13.1488 14.1055 12.8945 14.293 12.707L20.707 6.293C20.8946 6.10551 20.9999 5.85119 21 5.586V4C21 3.73478 20.8946 3.48043 20.7071 3.29289C20.5196 3.10536 20.2652 3 20 3Z" stroke="black" stroke-width="3" stroke-linecap="round" stroke-linejoin="round"/>
</svg>
