<svg width="24" height="24" viewBox="0 0 24 24" fill="none" xmlns="http://www.w3.org/2000/svg">
<path d="M16.5 14.625C15.4953 14.6234 14.525 14.9903 13.7728 15.6563L9.94685 13.2C10.1843 12.4176 10.1843 11.5824 9.94685 10.8L13.7728 8.34377C14.5175 8.99824 15.4737 9.36139 16.4651 9.36627C17.4565 9.37115 18.4162 9.01742 19.1673 8.37032C19.9185 7.72321 20.4103 6.82636 20.5521 5.84514C20.694 4.86393 20.4763 3.86451 19.9392 3.03119C19.4021 2.19786 18.5818 1.58682 17.6296 1.31074C16.6774 1.03465 15.6575 1.11214 14.7579 1.52892C13.8584 1.9457 13.1398 2.67366 12.7348 3.57857C12.3298 4.48348 12.2656 5.50431 12.554 6.45283L8.72716 8.90627C8.13205 8.38034 7.39776 8.03739 6.61248 7.9186C5.82721 7.79982 5.02434 7.91026 4.3003 8.23665C3.57626 8.56305 2.96184 9.09152 2.53083 9.7586C2.09982 10.4257 1.87054 11.203 1.87054 11.9972C1.87054 12.7914 2.09982 13.5687 2.53083 14.2358C2.96184 14.9029 3.57626 15.4314 4.3003 15.7578C5.02434 16.0842 5.82721 16.1946 6.61248 16.0758C7.39776 15.957 8.13205 15.6141 8.72716 15.0881L12.5531 17.55C12.3007 18.3802 12.3165 19.2689 12.5983 20.0897C12.8801 20.9104 13.4136 21.6213 14.1228 22.1214C14.832 22.6214 15.6808 22.885 16.5485 22.8747C17.4162 22.8645 18.2586 22.5808 18.9558 22.0641C19.6529 21.5475 20.1694 20.8241 20.4317 19.9969C20.694 19.1698 20.6888 18.2809 20.4168 17.4569C20.1448 16.6329 19.6198 15.9157 18.9166 15.4072C18.2134 14.8988 17.3677 14.6251 16.5 14.625ZM16.5 3.37502C16.8708 3.37502 17.2333 3.48499 17.5417 3.69101C17.85 3.89704 18.0903 4.18988 18.2322 4.53249C18.3742 4.8751 18.4113 5.2521 18.3389 5.61581C18.2666 5.97953 18.088 6.31362 17.8258 6.57584C17.5636 6.83807 17.2295 7.01664 16.8658 7.08899C16.5021 7.16134 16.1251 7.12421 15.7824 6.98229C15.4398 6.84038 15.147 6.60006 14.941 6.29171C14.7349 5.98337 14.625 5.62086 14.625 5.25002C14.625 4.75274 14.8225 4.27583 15.1741 3.92419C15.5258 3.57256 16.0027 3.37502 16.5 3.37502ZM5.99997 13.875C5.62913 13.875 5.26662 13.7651 4.95828 13.559C4.64994 13.353 4.40961 13.0602 4.2677 12.7176C4.12578 12.3749 4.08865 11.9979 4.161 11.6342C4.23335 11.2705 4.41192 10.9364 4.67415 10.6742C4.93637 10.412 5.27046 10.2334 5.63418 10.161C5.99789 10.0887 6.37489 10.1258 6.7175 10.2677C7.06012 10.4097 7.35295 10.65 7.55898 10.9583C7.76501 11.2667 7.87497 11.6292 7.87497 12C7.87497 12.4973 7.67743 12.9742 7.3258 13.3258C6.97417 13.6775 6.49725 13.875 5.99997 13.875ZM16.5 20.625C16.1291 20.625 15.7666 20.5151 15.4583 20.309C15.1499 20.103 14.9096 19.8102 14.7677 19.4676C14.6258 19.1249 14.5887 18.7479 14.661 18.3842C14.7333 18.0205 14.9119 17.6864 15.1741 17.4242C15.4364 17.162 15.7705 16.9834 16.1342 16.911C16.4979 16.8387 16.8749 16.8758 17.2175 17.0177C17.5601 17.1597 17.853 17.4 18.059 17.7083C18.265 18.0167 18.375 18.3792 18.375 18.75C18.375 19.2473 18.1774 19.7242 17.8258 20.0758C17.4742 20.4275 16.9973 20.625 16.5 20.625Z" fill="black"/>
</svg>
