<svg width="24" height="24" viewBox="0 0 24 24" fill="none" xmlns="http://www.w3.org/2000/svg">
<g clip-path="url(#clip0_1262_105)">
<path d="M14.2969 14.6757C15.4003 13.8082 16.2058 12.6183 16.6014 11.2716C16.997 9.9249 16.9629 8.48839 16.5039 7.16197C16.0449 5.83555 15.1839 4.6852 14.0406 3.871C12.8973 3.05681 11.5286 2.61926 10.125 2.61926C8.72142 2.61926 7.35274 3.05681 6.20944 3.871C5.06614 4.6852 4.20508 5.83555 3.7461 7.16197C3.28712 8.48839 3.25304 9.9249 3.64861 11.2716C4.04418 12.6183 4.84972 13.8082 5.95313 14.6757C4.17865 15.3992 2.61058 16.5503 1.38844 18.0263C1.19649 18.2548 1.10317 18.5502 1.12902 18.8475C1.15486 19.1448 1.29775 19.4197 1.52625 19.6116C1.75475 19.8036 2.05015 19.8969 2.34745 19.871C2.64475 19.8452 2.91961 19.7023 3.11156 19.4738C4.395 17.9457 6.65625 16.125 10.125 16.125C13.5938 16.125 15.855 17.9457 17.1384 19.4738C17.3304 19.7023 17.6053 19.8452 17.9026 19.871C18.1999 19.8969 18.4953 19.8036 18.7238 19.6116C18.9523 19.4197 19.0951 19.1448 19.121 18.8475C19.1468 18.5502 19.0535 18.2548 18.8616 18.0263C17.6397 16.5499 16.0716 15.3989 14.2969 14.6757ZM5.625 9.37504C5.625 8.48503 5.88892 7.615 6.38339 6.87498C6.87786 6.13496 7.58066 5.55818 8.40293 5.21759C9.22519 4.87699 10.13 4.78788 11.0029 4.96151C11.8758 5.13514 12.6776 5.56373 13.307 6.19306C13.9363 6.8224 14.3649 7.62422 14.5385 8.49714C14.7122 9.37005 14.6231 10.2749 14.2825 11.0971C13.9419 11.9194 13.3651 12.6222 12.6251 13.1167C11.885 13.6111 11.015 13.875 10.125 13.875C8.93191 13.8738 7.78804 13.3993 6.94439 12.5557C6.10075 11.712 5.62624 10.5681 5.625 9.37504ZM23.6709 12.796L20.6709 15.796C20.5664 15.9009 20.4422 15.9841 20.3055 16.0409C20.1687 16.0976 20.0221 16.1269 19.8741 16.1269C19.726 16.1269 19.5794 16.0976 19.4426 16.0409C19.3059 15.9841 19.1817 15.9009 19.0772 15.796L17.5772 14.296C17.3658 14.0846 17.2471 13.798 17.2471 13.4991C17.2471 13.2002 17.3658 12.9136 17.5772 12.7022C17.7885 12.4909 18.0752 12.3722 18.3741 12.3722C18.673 12.3722 18.9596 12.4909 19.1709 12.7022L19.875 13.4063L22.0791 11.2013C22.1837 11.0966 22.3079 11.0136 22.4447 10.957C22.5814 10.9004 22.7279 10.8712 22.8759 10.8712C23.0239 10.8712 23.1705 10.9004 23.3072 10.957C23.4439 11.0136 23.5682 11.0966 23.6728 11.2013C23.7775 11.3059 23.8605 11.4302 23.9171 11.5669C23.9737 11.7036 24.0029 11.8502 24.0029 11.9982C24.0029 12.1462 23.9737 12.2927 23.9171 12.4294C23.8605 12.5662 23.7775 12.6904 23.6728 12.795L23.6709 12.796Z" fill="black"/>
</g>
<defs>
<clipPath id="clip0_1262_105">
<rect width="24" height="24" fill="white"/>
</clipPath>
</defs>
</svg>
