<svg width="24" height="24" viewBox="0 0 24 24" fill="none" xmlns="http://www.w3.org/2000/svg">
<path d="M11.7356 14.7131C12.6779 13.9211 13.3537 12.8585 13.6716 11.6693C13.9894 10.4802 13.9338 9.22208 13.5123 8.0656C13.0908 6.90913 12.3239 5.91027 11.3154 5.20447C10.307 4.49868 9.10591 4.12012 7.87502 4.12012C6.64414 4.12012 5.44304 4.49868 4.43461 5.20447C3.42618 5.91027 2.65922 6.90913 2.23774 8.0656C1.81626 9.22208 1.76066 10.4802 2.07848 11.6693C2.3963 12.8585 3.07216 13.9211 4.0144 14.7131C2.54307 15.3784 1.26801 16.4116 0.312212 17.7131C0.135677 17.9537 0.0619346 18.2545 0.107207 18.5494C0.15248 18.8444 0.313058 19.1092 0.553618 19.2858C0.794178 19.4623 1.09501 19.536 1.38994 19.4908C1.68487 19.4455 1.94974 19.2849 2.12627 19.0444C2.78791 18.1407 3.65324 17.4058 4.65206 16.8992C5.65089 16.3926 6.75507 16.1286 7.87502 16.1286C8.99498 16.1286 10.0992 16.3926 11.098 16.8992C12.0968 17.4058 12.9621 18.1407 13.6238 19.0444C13.8003 19.285 14.0652 19.4457 14.3602 19.4911C14.6553 19.5365 14.9562 19.4628 15.1969 19.2862C15.4376 19.1097 15.5983 18.8448 15.6436 18.5498C15.689 18.2547 15.6153 17.9538 15.4388 17.7131C14.4824 16.4118 13.2071 15.3786 11.7356 14.7131ZM4.12502 10.125C4.12502 9.3833 4.34496 8.65828 4.75701 8.0416C5.16907 7.42491 5.75474 6.94426 6.43996 6.66044C7.12518 6.37661 7.87918 6.30234 8.60661 6.44704C9.33404 6.59173 10.0022 6.94889 10.5267 7.47333C11.0511 7.99778 11.4083 8.66597 11.553 9.3934C11.6977 10.1208 11.6234 10.8748 11.3396 11.56C11.0557 12.2453 10.5751 12.8309 9.95841 13.243C9.34173 13.6551 8.6167 13.875 7.87502 13.875C6.88046 13.875 5.92663 13.4799 5.22337 12.7766C4.52011 12.0734 4.12502 11.1195 4.12502 10.125ZM23.4469 19.2815C23.3278 19.3691 23.1926 19.4323 23.0491 19.4675C22.9056 19.5028 22.7565 19.5094 22.6104 19.487C22.4643 19.4646 22.3241 19.4137 22.1977 19.3371C22.0713 19.2605 21.9612 19.1598 21.8738 19.0406C21.2105 18.1387 20.3448 17.4051 19.3464 16.8987C18.3479 16.3923 17.2446 16.1273 16.125 16.125C15.8267 16.125 15.5405 16.0065 15.3295 15.7955C15.1185 15.5845 15 15.2984 15 15C15 14.7016 15.1185 14.4155 15.3295 14.2045C15.5405 13.9935 15.8267 13.875 16.125 13.875C16.658 13.874 17.1847 13.7595 17.6699 13.5389C18.1552 13.3184 18.5878 12.997 18.9391 12.596C19.2903 12.1951 19.552 11.7239 19.7068 11.2139C19.8615 10.7038 19.9058 10.1667 19.8366 9.63817C19.7674 9.10967 19.5863 8.602 19.3055 8.149C19.0246 7.69599 18.6504 7.30806 18.2078 7.01107C17.7652 6.71408 17.2644 6.51485 16.7388 6.42667C16.2131 6.33849 15.6747 6.36337 15.1594 6.49967C15.0155 6.54131 14.8647 6.55378 14.7159 6.53635C14.5671 6.51893 14.4233 6.47196 14.2929 6.39819C14.1625 6.32443 14.0481 6.22537 13.9565 6.10682C13.8649 5.98826 13.7979 5.85261 13.7595 5.70781C13.721 5.56301 13.7118 5.41199 13.7325 5.26361C13.7532 5.11523 13.8033 4.97247 13.88 4.84372C13.9566 4.71497 14.0581 4.60282 14.1787 4.51385C14.2992 4.42488 14.4363 4.36088 14.5819 4.32561C15.8995 3.97648 17.2967 4.08641 18.5435 4.6373C19.7904 5.18819 20.8124 6.1472 21.4415 7.35644C22.0706 8.56569 22.2691 9.95309 22.0045 11.2902C21.7399 12.6274 21.0279 13.8346 19.9856 14.7131C21.457 15.3784 22.732 16.4116 23.6878 17.7131C23.8631 17.9533 23.9362 18.2531 23.891 18.547C23.8459 18.8409 23.6862 19.105 23.4469 19.2815Z" fill="black"/>
</svg>
